<mxfile host="app.diagrams.net" modified="2023-01-05T08:16:38.912Z" agent="5.0 (Macintosh; Intel Mac OS X 10_15_7) AppleWebKit/537.36 (KHTML, like Gecko) Chrome/108.0.0.0 Safari/537.36" version="20.7.4" etag="HqgJ4khaR3rqlD-CUcVN" type="github">
  <diagram id="YVUoaGTMcWIvGlP6MnDf" name="第 1 页">
    <mxGraphModel dx="954" dy="559" grid="1" gridSize="10" guides="1" tooltips="1" connect="1" arrows="1" fold="1" page="1" pageScale="1" pageWidth="827" pageHeight="1169" math="0" shadow="0">
      <root>
        <mxCell id="0" />
        <mxCell id="1" parent="0" />
        <mxCell id="C4P6sSRYy0k-7sVb_2gp-1" value="" style="rounded=0;whiteSpace=wrap;html=1;dashed=1;" vertex="1" parent="1">
          <mxGeometry x="70" y="190" width="550" height="320" as="geometry" />
        </mxCell>
        <mxCell id="C4P6sSRYy0k-7sVb_2gp-2" value="Glight Manager UI" style="rounded=0;whiteSpace=wrap;html=1;fillColor=#dae8fc;strokeColor=#6c8ebf;" vertex="1" parent="1">
          <mxGeometry x="70" y="30" width="550" height="60" as="geometry" />
        </mxCell>
        <mxCell id="C4P6sSRYy0k-7sVb_2gp-3" value="Glight Web Service(Http)" style="rounded=0;whiteSpace=wrap;html=1;fillColor=#dae8fc;strokeColor=#6c8ebf;" vertex="1" parent="1">
          <mxGeometry x="70" y="110" width="550" height="60" as="geometry" />
        </mxCell>
        <mxCell id="C4P6sSRYy0k-7sVb_2gp-4" value="Glight Engine" style="text;html=1;strokeColor=none;fillColor=none;align=center;verticalAlign=middle;whiteSpace=wrap;rounded=0;dashed=1;" vertex="1" parent="1">
          <mxGeometry x="254" y="190" width="160" height="30" as="geometry" />
        </mxCell>
        <mxCell id="C4P6sSRYy0k-7sVb_2gp-6" value="Glight&lt;br&gt;Business&lt;br&gt;Storage&lt;br&gt;(Mysql)" style="rounded=0;whiteSpace=wrap;html=1;fillColor=#fff2cc;strokeColor=#d6b656;" vertex="1" parent="1">
          <mxGeometry x="640" y="110" width="100" height="400" as="geometry" />
        </mxCell>
        <mxCell id="C4P6sSRYy0k-7sVb_2gp-7" value="Engine Web Service(Http)" style="rounded=0;whiteSpace=wrap;html=1;fillColor=#dae8fc;strokeColor=#6c8ebf;" vertex="1" parent="1">
          <mxGeometry x="450" y="220" width="150" height="120" as="geometry" />
        </mxCell>
        <mxCell id="C4P6sSRYy0k-7sVb_2gp-8" value="DolphinScheduler" style="rounded=0;whiteSpace=wrap;html=1;fillColor=#fff2cc;strokeColor=#d6b656;" vertex="1" parent="1">
          <mxGeometry x="450" y="360" width="150" height="120" as="geometry" />
        </mxCell>
        <mxCell id="C4P6sSRYy0k-7sVb_2gp-9" value="Unified Task Definition" style="rounded=0;whiteSpace=wrap;html=1;fillColor=#dae8fc;strokeColor=#6c8ebf;" vertex="1" parent="1">
          <mxGeometry x="90" y="220" width="350" height="40" as="geometry" />
        </mxCell>
        <mxCell id="C4P6sSRYy0k-7sVb_2gp-10" value="Unified Rule Defined" style="rounded=0;whiteSpace=wrap;html=1;fillColor=#dae8fc;strokeColor=#6c8ebf;" vertex="1" parent="1">
          <mxGeometry x="90" y="370" width="350" height="40" as="geometry" />
        </mxCell>
        <mxCell id="C4P6sSRYy0k-7sVb_2gp-11" value="" style="rounded=0;whiteSpace=wrap;html=1;" vertex="1" parent="1">
          <mxGeometry x="90" y="279" width="350" height="70" as="geometry" />
        </mxCell>
        <mxCell id="C4P6sSRYy0k-7sVb_2gp-12" value="Operator" style="text;html=1;strokeColor=none;fillColor=none;align=center;verticalAlign=middle;whiteSpace=wrap;rounded=0;fontFamily=Helvetica;rotation=-90;" vertex="1" parent="1">
          <mxGeometry x="90" y="273.35" width="14.94" height="81.3" as="geometry" />
        </mxCell>
        <mxCell id="C4P6sSRYy0k-7sVb_2gp-16" style="edgeStyle=orthogonalEdgeStyle;rounded=0;orthogonalLoop=1;jettySize=auto;html=1;fontFamily=Helvetica;" edge="1" parent="1" source="C4P6sSRYy0k-7sVb_2gp-13" target="C4P6sSRYy0k-7sVb_2gp-14">
          <mxGeometry relative="1" as="geometry" />
        </mxCell>
        <mxCell id="C4P6sSRYy0k-7sVb_2gp-13" value="source" style="rounded=0;whiteSpace=wrap;html=1;fontFamily=Helvetica;fillColor=#dae8fc;strokeColor=#6c8ebf;" vertex="1" parent="1">
          <mxGeometry x="120" y="290" width="70" height="45" as="geometry" />
        </mxCell>
        <mxCell id="C4P6sSRYy0k-7sVb_2gp-17" style="edgeStyle=orthogonalEdgeStyle;rounded=0;orthogonalLoop=1;jettySize=auto;html=1;entryX=0;entryY=0.5;entryDx=0;entryDy=0;fontFamily=Helvetica;" edge="1" parent="1" source="C4P6sSRYy0k-7sVb_2gp-14" target="C4P6sSRYy0k-7sVb_2gp-15">
          <mxGeometry relative="1" as="geometry" />
        </mxCell>
        <mxCell id="C4P6sSRYy0k-7sVb_2gp-14" value="action" style="rounded=0;whiteSpace=wrap;html=1;fontFamily=Helvetica;fillColor=#dae8fc;strokeColor=#6c8ebf;" vertex="1" parent="1">
          <mxGeometry x="234" y="290" width="70" height="45" as="geometry" />
        </mxCell>
        <mxCell id="C4P6sSRYy0k-7sVb_2gp-15" value="sink" style="rounded=0;whiteSpace=wrap;html=1;fontFamily=Helvetica;fillColor=#dae8fc;strokeColor=#6c8ebf;" vertex="1" parent="1">
          <mxGeometry x="346" y="290" width="70" height="45" as="geometry" />
        </mxCell>
        <mxCell id="C4P6sSRYy0k-7sVb_2gp-19" value="spark" style="rounded=0;whiteSpace=wrap;html=1;fontFamily=Helvetica;fillColor=#d5e8d4;strokeColor=#82b366;" vertex="1" parent="1">
          <mxGeometry x="90" y="430" width="170" height="50" as="geometry" />
        </mxCell>
        <mxCell id="C4P6sSRYy0k-7sVb_2gp-20" value="flink" style="rounded=0;whiteSpace=wrap;html=1;fontFamily=Helvetica;fillColor=#d5e8d4;strokeColor=#82b366;" vertex="1" parent="1">
          <mxGeometry x="280" y="430" width="160" height="50" as="geometry" />
        </mxCell>
        <mxCell id="C4P6sSRYy0k-7sVb_2gp-21" value="" style="rounded=0;whiteSpace=wrap;html=1;fontFamily=Helvetica;dashed=1;" vertex="1" parent="1">
          <mxGeometry x="70" y="525" width="670" height="85" as="geometry" />
        </mxCell>
        <mxCell id="C4P6sSRYy0k-7sVb_2gp-23" value="DataSource Connector" style="text;html=1;strokeColor=none;fillColor=none;align=center;verticalAlign=middle;whiteSpace=wrap;rounded=0;fontFamily=Helvetica;" vertex="1" parent="1">
          <mxGeometry x="330" y="525" width="170" height="25" as="geometry" />
        </mxCell>
        <mxCell id="C4P6sSRYy0k-7sVb_2gp-24" value="&lt;b&gt;hive&lt;/b&gt;" style="rounded=0;whiteSpace=wrap;html=1;fontFamily=Helvetica;fillColor=#dae8fc;strokeColor=#6c8ebf;" vertex="1" parent="1">
          <mxGeometry x="90" y="550" width="70" height="50" as="geometry" />
        </mxCell>
        <mxCell id="C4P6sSRYy0k-7sVb_2gp-25" value="&lt;b&gt;hbase&lt;/b&gt;" style="rounded=0;whiteSpace=wrap;html=1;fontFamily=Helvetica;fillColor=#dae8fc;strokeColor=#6c8ebf;" vertex="1" parent="1">
          <mxGeometry x="180" y="550" width="70" height="50" as="geometry" />
        </mxCell>
        <mxCell id="C4P6sSRYy0k-7sVb_2gp-27" value="&lt;b&gt;es&lt;/b&gt;" style="rounded=0;whiteSpace=wrap;html=1;fontFamily=Helvetica;fillColor=#dae8fc;strokeColor=#6c8ebf;" vertex="1" parent="1">
          <mxGeometry x="270" y="550" width="70" height="50" as="geometry" />
        </mxCell>
        <mxCell id="C4P6sSRYy0k-7sVb_2gp-28" value="&lt;b&gt;mysql&lt;/b&gt;" style="rounded=0;whiteSpace=wrap;html=1;fontFamily=Helvetica;fillColor=#dae8fc;strokeColor=#6c8ebf;" vertex="1" parent="1">
          <mxGeometry x="360" y="550" width="70" height="50" as="geometry" />
        </mxCell>
        <mxCell id="C4P6sSRYy0k-7sVb_2gp-29" value="&lt;b&gt;ftp&lt;/b&gt;" style="rounded=0;whiteSpace=wrap;html=1;fontFamily=Helvetica;fillColor=#dae8fc;strokeColor=#6c8ebf;" vertex="1" parent="1">
          <mxGeometry x="450" y="550" width="70" height="50" as="geometry" />
        </mxCell>
        <mxCell id="C4P6sSRYy0k-7sVb_2gp-30" value="&lt;b&gt;kafka&lt;/b&gt;" style="rounded=0;whiteSpace=wrap;html=1;fontFamily=Helvetica;fillColor=#dae8fc;strokeColor=#6c8ebf;" vertex="1" parent="1">
          <mxGeometry x="540" y="550" width="70" height="50" as="geometry" />
        </mxCell>
        <mxCell id="C4P6sSRYy0k-7sVb_2gp-31" value="&lt;b&gt;Oracle&lt;/b&gt;" style="rounded=0;whiteSpace=wrap;html=1;fontFamily=Helvetica;fillColor=#dae8fc;strokeColor=#6c8ebf;" vertex="1" parent="1">
          <mxGeometry x="630" y="550" width="70" height="50" as="geometry" />
        </mxCell>
        <mxCell id="C4P6sSRYy0k-7sVb_2gp-32" value="&lt;b&gt;...&lt;/b&gt;" style="text;html=1;strokeColor=none;fillColor=none;align=center;verticalAlign=middle;whiteSpace=wrap;rounded=0;fontFamily=Helvetica;" vertex="1" parent="1">
          <mxGeometry x="690" y="560" width="60" height="30" as="geometry" />
        </mxCell>
      </root>
    </mxGraphModel>
  </diagram>
</mxfile>
